<svg xmlns="http://www.w3.org/2000/svg" width="166.911" height="156.992" viewBox="0 0 166.911 156.992">
  <g id="Grupo_1075903" data-name="Grupo 1075903" transform="translate(-721.089 -3230.205)">
    <g id="Grupo_161158" data-name="Grupo 161158" transform="translate(721.089 3230.205)">
      <path id="Trazado_608379" data-name="Trazado 608379" d="M78.5,0A78.5,78.5,0,1,1,0,78.5,78.5,78.5,0,0,1,78.5,0Z" fill="#0c5e46"/>
    </g>
    <rect id="Rectángulo_377357" data-name="Rectángulo 377357" width="13" height="4" transform="translate(875 3307)" fill="#0c5e46"/>
    <g id="Grupo_1071498" data-name="Grupo 1071498" transform="translate(730.226 3237.682)">
      <ellipse id="Elipse_1142" data-name="Elipse 1142" cx="69.5" cy="69" rx="69.5" ry="69" transform="translate(-0.226 0.319)" fill="#e1efe3"/>
    </g>
    <g id="riesgo-financiero" transform="translate(734.819 3255.015)">
      <g id="Grupo_1075563" data-name="Grupo 1075563" transform="translate(17.106 15.047)">
        <path id="Trazado_612978" data-name="Trazado 612978" d="M72.7,138.73l-1.84-7.358A52.259,52.259,0,0,0,60.31,110.6l-2.149-2.579-.49-6.532a47.1,47.1,0,0,0,6.733-13.227l.213-.656a1.53,1.53,0,0,0-.737-1.831,13.97,13.97,0,0,0-8-1.465h0q.209-.8.381-1.6l.242-1.128A1.524,1.524,0,0,0,55.2,79.9a40.674,40.674,0,0,0-20.2,0,1.524,1.524,0,0,0-1.3,1.684l.242,1.128q.172.8.381,1.6h0a13.969,13.969,0,0,0-8,1.465,1.53,1.53,0,0,0-.737,1.831l.213.656a47.1,47.1,0,0,0,6.733,13.227l-.49,6.532L29.884,110.6a52.259,52.259,0,0,0-10.548,20.775L17.5,138.73a13.062,13.062,0,0,0,3.44,12.408l.118.118a10.774,10.774,0,0,0,6.792,3.121l.42.032a218.627,218.627,0,0,0,33.9-.033l.316-.025a10.478,10.478,0,0,0,6.574-3.026l.2-.2a13.04,13.04,0,0,0,3.445-12.4Z" transform="translate(-17.106 -78.623)" fill="#ea9b58"/>
        <path id="Trazado_612979" data-name="Trazado 612979" d="M94.121,299.458l3.268-.589,7.781-5.209,3.776-13.153-5.4-9.083-8.153-4.237H92.1a16.328,16.328,0,0,0,0,32.34Z" transform="translate(-66.376 -231.1)" fill="#ffe177"/>
        <path id="Trazado_612980" data-name="Trazado 612980" d="M224.938,162.363,223.1,155a52.259,52.259,0,0,0-10.548-20.775L210.4,131.65l-.49-6.532a47.1,47.1,0,0,0,6.733-13.227l.213-.656a1.53,1.53,0,0,0-.737-1.831,13.972,13.972,0,0,0-7.7-1.494,14.052,14.052,0,0,1,3.294,1.2,1.53,1.53,0,0,1,.737,1.831l-.213.656a49.123,49.123,0,0,1-6.861,13.518l.49,6.532,2.149,2.579A52.259,52.259,0,0,1,218.564,155l1.9,7.662a13.041,13.041,0,0,1-3.444,12.4l-.2.2a10.478,10.478,0,0,1-6.574,3.026l-.313.025q2.235-.13,4.467-.3l.316-.025a10.478,10.478,0,0,0,6.574-3.026l.2-.2A13.04,13.04,0,0,0,224.938,162.363Z" transform="translate(-169.347 -102.256)" fill="#d88a55"/>
        <path id="Trazado_612981" data-name="Trazado 612981" d="M153.786,266.349a16.465,16.465,0,0,0-2.267.16,16.328,16.328,0,0,1,0,32.34,16.329,16.329,0,1,0,2.267-32.5Z" transform="translate(-125.795 -230.422)" fill="#ffd15b"/>
        <g id="Grupo_1075558" data-name="Grupo 1075558" transform="translate(11.661 22.862)">
          <g id="Grupo_1075557" data-name="Grupo 1075557" transform="translate(0 0)">
            <path id="Trazado_612982" data-name="Trazado 612982" d="M106.839,204.617H81.3a3.266,3.266,0,0,1,0-6.532h25.537a3.266,3.266,0,1,1,0,6.532Z" transform="translate(-78.036 -198.085)" fill="#ffe177"/>
          </g>
        </g>
        <path id="Trazado_612983" data-name="Trazado 612983" d="M212.471,198.085h-4.534a3.266,3.266,0,0,1,0,6.532h4.534a3.266,3.266,0,0,0,0-6.532Z" transform="translate(-171.416 -175.223)" fill="#ffd15b"/>
        <g id="Grupo_1075562" data-name="Grupo 1075562" transform="translate(14.157 5.591)">
          <g id="Grupo_1075561" data-name="Grupo 1075561">
            <g id="Grupo_1075559" data-name="Grupo 1075559">
              <path id="Trazado_612984" data-name="Trazado 612984" d="M97.214,119.6a1.477,1.477,0,0,0,.868-2.161,38.331,38.331,0,0,1-3.951-9.509v0h0a13.921,13.921,0,0,0-3.052-.015,41.062,41.062,0,0,0,4.444,11A1.48,1.48,0,0,0,97.214,119.6Z" transform="translate(-91.08 -107.839)" fill="#d88a55"/>
            </g>
            <g id="Grupo_1075560" data-name="Grupo 1075560" transform="translate(20.466 0)">
              <path id="Trazado_612985" data-name="Trazado 612985" d="M200.777,118.919a41.068,41.068,0,0,0,4.444-11,13.922,13.922,0,0,0-3.052.015h0l.006-.024a38.321,38.321,0,0,1-3.956,9.528,1.479,1.479,0,0,0,2.558,1.484Z" transform="translate(-198.018 -107.839)" fill="#d88a55"/>
            </g>
          </g>
        </g>
        <path id="Trazado_612986" data-name="Trazado 612986" d="M141.76,302.88c-.227-.08-.457-.163-.688-.248v-4.277a3.1,3.1,0,0,1,.337.165,1.449,1.449,0,0,0,.849.175l.087-.008a1.452,1.452,0,0,0,.6-2.7,6.172,6.172,0,0,0-1.87-.709v-.711a1.479,1.479,0,0,0-2.957,0v.814c-.068.018-.136.034-.2.055a4.794,4.794,0,0,0-3.288,3.757,4.268,4.268,0,0,0,1.413,4.2,10.312,10.312,0,0,0,2.08,1.222v5.769a4.292,4.292,0,0,1-1.741-.772,1.479,1.479,0,0,0-2.147.607,1.5,1.5,0,0,0,.565,1.892,6.866,6.866,0,0,0,3.323,1.249v.8a1.479,1.479,0,1,0,2.957,0v-.942a5.775,5.775,0,0,0,4.145-4.583A5.086,5.086,0,0,0,141.76,302.88Zm-3.9-1.815a1.373,1.373,0,0,1-.332-1.328,2.05,2.05,0,0,1,.587-1.094v2.606C138.025,301.188,137.939,301.127,137.86,301.065Zm4.441,7.08a2.824,2.824,0,0,1-1.228,1.881V305.79A2.084,2.084,0,0,1,142.3,308.145Z" transform="translate(-111.701 -252.042)" fill="#685e68"/>
      </g>
      <g id="Grupo_1075564" data-name="Grupo 1075564" transform="translate(70.992 0)">
        <path id="Trazado_612987" data-name="Trazado 612987" d="M312.557,22.046V13.336a.816.816,0,0,1,.816-.816h2.449a.817.817,0,0,0,.653-1.307L308.311.327a.816.816,0,0,0-1.306,0L298.84,11.214a.816.816,0,0,0,.653,1.306h2.45a.816.816,0,0,1,.816.816v8.709a.817.817,0,0,0,.816.817h8.165a.817.817,0,0,0,.817-.817Z" transform="translate(-298.675 0)" fill="#6fd7a3"/>
        <path id="Trazado_612988" data-name="Trazado 612988" d="M344.853,11.214,336.687.327a.817.817,0,0,0-1.307,0l-1.614,2.152,6.551,8.735a.816.816,0,0,1-.653,1.306h-2.449a.816.816,0,0,0-.816.817v8.709a.817.817,0,0,1-.817.817h4.534a.816.816,0,0,0,.816-.817v-8.71a.817.817,0,0,1,.816-.817H344.2a.816.816,0,0,0,.654-1.306Z" transform="translate(-327.051 -0.001)" fill="#3ec3a4"/>
      </g>
      <g id="Grupo_1075565" data-name="Grupo 1075565" transform="translate(87.254 19.594)">
        <path id="Trazado_612989" data-name="Trazado 612989" d="M397.528,103.2v8.709a.816.816,0,0,0,.817.816h2.449a.817.817,0,0,1,.653,1.307l-8.165,10.887a.817.817,0,0,1-1.306,0l-8.165-10.887a.816.816,0,0,1,.653-1.306h2.45a.816.816,0,0,0,.816-.816V103.2a.816.816,0,0,1,.817-.816h8.165a.816.816,0,0,1,.816.816Z" transform="translate(-383.646 -102.386)" fill="#fd8087"/>
        <path id="Trazado_612990" data-name="Trazado 612990" d="M429.823,114.035l-8.165,10.887a.817.817,0,0,1-1.306,0l-1.614-2.152,6.551-8.735a.816.816,0,0,0-.653-1.306h-2.449a.816.816,0,0,1-.816-.816V103.2a.816.816,0,0,0-.816-.816h4.534a.816.816,0,0,1,.816.816v8.709a.816.816,0,0,0,.817.816h2.449A.816.816,0,0,1,429.823,114.035Z" transform="translate(-412.022 -102.386)" fill="#fe646f"/>
      </g>
      <g id="Grupo_1075576" data-name="Grupo 1075576" transform="translate(62.834 52.311)">
        <path id="Trazado_612991" data-name="Trazado 612991" d="M295.108,319.015H262.69a6.635,6.635,0,0,1-5.937-9.6l16.209-32.4a6.639,6.639,0,0,1,11.874,0l16.209,32.4A6.635,6.635,0,0,1,295.108,319.015Z" transform="translate(-256.044 -273.34)" fill="#ffe177"/>
        <g id="Grupo_1075571" data-name="Grupo 1075571" transform="translate(21.307 7.534)">
          <g id="Grupo_1075570" data-name="Grupo 1075570">
            <g id="Grupo_1075566" data-name="Grupo 1075566" transform="translate(0 26.031)">
              <path id="Trazado_612992" data-name="Trazado 612992" d="M370.473,450.276a1.549,1.549,0,1,1-1.549-1.548A1.548,1.548,0,0,1,370.473,450.276Z" transform="translate(-367.376 -448.728)" fill="#685e68"/>
            </g>
            <g id="Grupo_1075569" data-name="Grupo 1075569" transform="translate(0.093)">
              <g id="Grupo_1075568" data-name="Grupo 1075568">
                <g id="Grupo_1075567" data-name="Grupo 1075567">
                  <path id="Trazado_612993" data-name="Trazado 612993" d="M369.339,335.484a1.479,1.479,0,0,1-1.479-1.479V314.188a1.479,1.479,0,0,1,2.957,0v19.818A1.479,1.479,0,0,1,369.339,335.484Z" transform="translate(-367.86 -312.709)" fill="#685e68"/>
                </g>
              </g>
            </g>
          </g>
        </g>
        <g id="Grupo_1075575" data-name="Grupo 1075575" transform="translate(21.399 7.534)">
          <g id="Grupo_1075574" data-name="Grupo 1075574">
            <g id="Grupo_1075573" data-name="Grupo 1075573">
              <g id="Grupo_1075572" data-name="Grupo 1075572">
                <path id="Trazado_612994" data-name="Trazado 612994" d="M369.339,335.484a1.479,1.479,0,0,1-1.479-1.479V314.188a1.479,1.479,0,0,1,2.957,0v19.818A1.479,1.479,0,0,1,369.339,335.484Z" transform="translate(-367.86 -312.709)" fill="#685e68"/>
              </g>
            </g>
          </g>
        </g>
        <path id="Trazado_612995" data-name="Trazado 612995" d="M388.034,309.421l-16.209-32.4a6.628,6.628,0,0,0-8.2-3.275,6.521,6.521,0,0,1,3.67,3.275l16.209,32.4a6.635,6.635,0,0,1-5.937,9.6H382.1A6.635,6.635,0,0,0,388.034,309.421Z" transform="translate(-343.033 -273.349)" fill="#ffd15b"/>
      </g>
    </g>
  </g>
</svg>
