<svg xmlns="http://www.w3.org/2000/svg" width="166.911" height="156.992" viewBox="0 0 166.911 156.992">
  <g id="Grupo_1075901" data-name="Grupo 1075901" transform="translate(-721.089 -2838.141)">
    <g id="Grupo_161158" data-name="Grupo 161158" transform="translate(721.089 2838.141)">
      <path id="Trazado_608967" data-name="Trazado 608967" d="M78.5,0A78.5,78.5,0,1,1,0,78.5,78.5,78.5,0,0,1,78.5,0Z" fill="#0c5e46"/>
    </g>
    <g id="Grupo_1071496" data-name="Grupo 1071496" transform="translate(730.224 2847.278)">
      <circle id="Elipse_1142" data-name="Elipse 1142" cx="69.5" cy="69.5" r="69.5" transform="translate(-0.224 -0.278)" fill="#e1efe3"/>
    </g>
    <rect id="Rectángulo_377356" data-name="Rectángulo 377356" width="13" height="4" transform="translate(875 2915)" fill="#0c5e46"/>
    <g id="_x38_2" transform="translate(747 2866.411)">
      <g id="Grupo_1075509" data-name="Grupo 1075509" transform="translate(7.303 6.939)">
        <g id="Grupo_1075508" data-name="Grupo 1075508">
          <g id="Grupo_1075447" data-name="Grupo 1075447" transform="translate(48.328 14.145)">
            <g id="Grupo_1075446" data-name="Grupo 1075446" transform="translate(0)">
              <path id="Trazado_612939" data-name="Trazado 612939" d="M35.985,15.408c.009.21,2.15,18.962.983,23.267s15.927,6.314,19.689,1.792-.248-18.661-.248-18.661L51,16.521Z" transform="translate(-35.985 -15.408)" fill="#0e0f16"/>
            </g>
          </g>
          <g id="Grupo_1075503" data-name="Grupo 1075503">
            <g id="Grupo_1075495" data-name="Grupo 1075495" transform="translate(38.981)">
              <g id="Grupo_1075494" data-name="Grupo 1075494" transform="translate(0)">
                <g id="Grupo_1075493" data-name="Grupo 1075493">
                  <g id="Grupo_1075470" data-name="Grupo 1075470" transform="translate(0 41.308)">
                    <g id="Grupo_1075461" data-name="Grupo 1075461" transform="translate(0 0.015)">
                      <g id="Grupo_1075460" data-name="Grupo 1075460">
                        <g id="Grupo_1075449" data-name="Grupo 1075449">
                          <g id="Grupo_1075448" data-name="Grupo 1075448">
                            <path id="Trazado_612940" data-name="Trazado 612940" d="M46.509,76.216,52.8,32.653l-8.912-.023c-3.075.126-7.165,1.684-7.736,5.5L30.062,76.216H46.509Z" transform="translate(-30.062 -32.629)" fill="#f73731"/>
                          </g>
                        </g>
                        <g id="Grupo_1075451" data-name="Grupo 1075451" transform="translate(13.823 0)">
                          <g id="Grupo_1075450" data-name="Grupo 1075450">
                            <path id="Trazado_612941" data-name="Trazado 612941" d="M81.016,79.628V41.214A8.608,8.608,0,0,0,72.34,32.63H38.821v47Z" transform="translate(-38.821 -32.63)" fill="#f73731"/>
                          </g>
                        </g>
                        <g id="Grupo_1075453" data-name="Grupo 1075453" transform="translate(21.167 0)">
                          <g id="Grupo_1075452" data-name="Grupo 1075452">
                            <path id="Trazado_612942" data-name="Trazado 612942" d="M64.568,34.293c-1.034,4.242-10.773,9.983-17.16,9.455-5.042-.417-4.174-5.214-3.139-9.455a6.217,6.217,0,0,1,.69-1.663H64.7a5,5,0,0,1-.131,1.663Z" transform="translate(-43.475 -32.63)" fill="#e8efff"/>
                          </g>
                        </g>
                        <g id="Grupo_1075455" data-name="Grupo 1075455" transform="translate(13.817 25.908)">
                          <g id="Grupo_1075454" data-name="Grupo 1075454">
                            <path id="Trazado_612943" data-name="Trazado 612943" d="M81.018,70.137V51c-.409-.211-.834-.421-1.228-.647-.531-.286-1.47-1.294-2.062-1.309-.819-.03-.743.948-1.031,1.595A7.728,7.728,0,0,1,75.3,52.748a15.579,15.579,0,0,1-4.654,3.189c-6.427,3.159-13.521,4.693-20.539,6.2a72.1,72.1,0,0,1-11.293,1.835v6.168h42.2Z" transform="translate(-38.817 -49.047)" fill="#c61f17"/>
                          </g>
                        </g>
                        <g id="Grupo_1075459" data-name="Grupo 1075459" transform="translate(11.245 8.963)">
                          <g id="Grupo_1075458" data-name="Grupo 1075458">
                            <g id="Grupo_1075457" data-name="Grupo 1075457">
                              <g id="Grupo_1075456" data-name="Grupo 1075456">
                                <path id="Trazado_612944" data-name="Trazado 612944" d="M40.036,58.955h-.56v-5.7a2.057,2.057,0,0,0-.691-1.516,4.9,4.9,0,0,1-1.6-3.638,4.961,4.961,0,0,1,1.618-3.684,2.05,2.05,0,0,0,.686-1.512v-4.6h.56v4.6a2.637,2.637,0,0,1-.866,1.924A4.409,4.409,0,0,0,37.747,48.1a4.349,4.349,0,0,0,1.418,3.227,2.645,2.645,0,0,1,.871,1.927v5.7Z" transform="translate(-37.187 -38.309)" fill="#c61f17"/>
                              </g>
                            </g>
                          </g>
                        </g>
                      </g>
                    </g>
                    <g id="Grupo_1075464" data-name="Grupo 1075464" transform="translate(9.864 25.92)">
                      <g id="Grupo_1075463" data-name="Grupo 1075463">
                        <g id="Grupo_1075462" data-name="Grupo 1075462">
                          <path id="Trazado_612945" data-name="Trazado 612945" d="M37.16,55.314c-1.109,1.47-.812,7.32-.812,7.32a1.7,1.7,0,0,0,1.643,1.681h0a2.4,2.4,0,0,0,1.494-.978,3.531,3.531,0,0,1,3.469-1.059L50.4,62.7l.743-10.114L45.8,49.279a1.561,1.561,0,1,0-1.451,2.755l.4.174s-6.349,1.471-7.583,3.106Z" transform="translate(-36.312 -49.045)" fill="#fdbbad"/>
                        </g>
                      </g>
                    </g>
                    <g id="Grupo_1075466" data-name="Grupo 1075466" transform="translate(23.189 0)">
                      <g id="Grupo_1075465" data-name="Grupo 1075465">
                        <path id="Trazado_612946" data-name="Trazado 612946" d="M61.595,60.071s3.862-19.1,8.139-27.441h.031a8.144,8.144,0,0,1,8.513,8.38l-.687,15.084-2.756,9.976a8.988,8.988,0,0,1-8.668,6.594L44.756,72.65V60.831Z" transform="translate(-44.756 -32.62)" fill="#f73731"/>
                      </g>
                    </g>
                    <g id="Grupo_1075469" data-name="Grupo 1075469" transform="translate(23.176 13.559)">
                      <g id="Grupo_1075468" data-name="Grupo 1075468">
                        <g id="Grupo_1075467" data-name="Grupo 1075467">
                          <path id="Trazado_612947" data-name="Trazado 612947" d="M44.773,56.144l-.025-.56,16.628-.749,3.28-13.623.545.131L61.822,55.375Z" transform="translate(-44.748 -41.211)" fill="#c61f17"/>
                        </g>
                      </g>
                    </g>
                  </g>
                  <g id="Grupo_1075490" data-name="Grupo 1075490" transform="translate(6.574)">
                    <g id="Grupo_1075487" data-name="Grupo 1075487">
                      <g id="Grupo_1075472" data-name="Grupo 1075472" transform="translate(19.511 25.413)">
                        <g id="Grupo_1075471" data-name="Grupo 1075471">
                          <path id="Trazado_612948" data-name="Trazado 612948" d="M46.591,22.548H59.7V38.46H46.591Z" transform="translate(-46.591 -22.548)" fill="#fdbbad"/>
                        </g>
                      </g>
                      <g id="Grupo_1075474" data-name="Grupo 1075474" transform="translate(19.512 22.712)">
                        <g id="Grupo_1075473" data-name="Grupo 1075473">
                          <path id="Trazado_612949" data-name="Trazado 612949" d="M46.591,20.836v12.22A23.4,23.4,0,0,0,59.7,34.928V20.836H46.591Z" transform="translate(-46.591 -20.836)" fill="#eca090"/>
                        </g>
                      </g>
                      <g id="Grupo_1075476" data-name="Grupo 1075476" transform="translate(6.063 7.532)">
                        <g id="Grupo_1075475" data-name="Grupo 1075475">
                          <path id="Trazado_612950" data-name="Trazado 612950" d="M38.261,24.762l1.431,7.756a11.464,11.464,0,0,0,22.547-4.159L60.808,20.6a11.464,11.464,0,1,0-22.547,4.159Z" transform="translate(-38.069 -11.217)" fill="#fdbbad"/>
                        </g>
                      </g>
                      <g id="Grupo_1075478" data-name="Grupo 1075478" transform="translate(16.558 21.085)">
                        <g id="Grupo_1075477" data-name="Grupo 1075477">
                          <ellipse id="Elipse_5882" data-name="Elipse 5882" cx="1.07" cy="1.409" rx="1.07" ry="1.409" transform="translate(0 0.387) rotate(-10.433)" fill="#0e0f16"/>
                        </g>
                      </g>
                      <g id="Grupo_1075480" data-name="Grupo 1075480" transform="translate(9.074 22.463)">
                        <g id="Grupo_1075479" data-name="Grupo 1075479">
                          <ellipse id="Elipse_5883" data-name="Elipse 5883" cx="1.07" cy="1.409" rx="1.07" ry="1.409" transform="translate(0 0.387) rotate(-10.433)" fill="#0e0f16"/>
                        </g>
                      </g>
                      <g id="Grupo_1075482" data-name="Grupo 1075482" transform="translate(11.471 29.647)">
                        <g id="Grupo_1075481" data-name="Grupo 1075481">
                          <path id="Trazado_612951" data-name="Trazado 612951" d="M49.52,25.231c.007.058.026.112.031.171a4.039,4.039,0,1,1-8.054.625c0-.059.006-.115,0-.174Z" transform="translate(-41.496 -25.231)" fill="#fff"/>
                        </g>
                      </g>
                      <g id="Grupo_1075484" data-name="Grupo 1075484" transform="translate(11.921 0.059)">
                        <g id="Grupo_1075483" data-name="Grupo 1075483">
                          <path id="Trazado_612952" data-name="Trazado 612952" d="M70.783,36.853c1.191,8.725-5.422,9.859-8.3,8.17-1.45-.849-3.4-19.472-3.4-19.472C45.215,21.7,42.362,19.016,41.781,18.121c2.865-2.933,9.347-11.639,9.347-11.639,9.257.285,13.781,9.177,13.639,12.841s5.357,12.7,6.016,17.531Z" transform="translate(-41.781 -6.482)" fill="#0e0f16"/>
                        </g>
                      </g>
                      <g id="Grupo_1075486" data-name="Grupo 1075486">
                        <g id="Grupo_1075485" data-name="Grupo 1075485">
                          <path id="Trazado_612953" data-name="Trazado 612953" d="M61.961,12.538c.951,5.158-5.348,10.644-14.07,12.252s-12.6.749-13.555-4.409S38.8,9.57,44.789,7.972c13.09-3.49,16.221-.593,17.172,4.565Z" transform="translate(-34.227 -6.444)" fill="#0e0f16"/>
                        </g>
                      </g>
                    </g>
                    <g id="Grupo_1075489" data-name="Grupo 1075489" transform="translate(27.775 19.078)">
                      <g id="Grupo_1075488" data-name="Grupo 1075488">
                        <path id="Trazado_612954" data-name="Trazado 612954" d="M51.827,18.594a3.831,3.831,0,0,1,1.39,7.534Z" transform="translate(-51.827 -18.534)" fill="#fdbbad"/>
                      </g>
                    </g>
                  </g>
                  <g id="Grupo_1075492" data-name="Grupo 1075492" transform="translate(26.09 41.329)">
                    <g id="Grupo_1075491" data-name="Grupo 1075491">
                      <path id="Trazado_612955" data-name="Trazado 612955" d="M46.594,32.633l2.495,1.109,10.6-1.109Z" transform="translate(-46.594 -32.633)" fill="#fdbbad"/>
                    </g>
                  </g>
                </g>
              </g>
            </g>
            <g id="Grupo_1075502" data-name="Grupo 1075502" transform="translate(0 50.948)">
              <g id="Grupo_1075497" data-name="Grupo 1075497" transform="translate(6.591 32.937)">
                <g id="Grupo_1075496" data-name="Grupo 1075496">
                  <path id="Trazado_612956" data-name="Trazado 612956" d="M9.537,59.6v1.95a2.488,2.488,0,0,0,2.488,2.488H62.9a2.219,2.219,0,0,0,2.219-2.219h0A2.219,2.219,0,0,0,62.9,59.6Z" transform="translate(-9.537 -59.599)" fill="#4d5d77"/>
                </g>
              </g>
              <g id="Grupo_1075499" data-name="Grupo 1075499">
                <g id="Grupo_1075498" data-name="Grupo 1075498">
                  <path id="Trazado_612957" data-name="Trazado 612957" d="M5.425,41.7l6.522,29.956H53.7L46.911,40.61a2.432,2.432,0,0,0-2.365-1.882H7.79A2.428,2.428,0,0,0,5.425,41.7Z" transform="translate(-5.361 -38.728)" fill="#6b7994"/>
                </g>
              </g>
              <g id="Grupo_1075501" data-name="Grupo 1075501" transform="translate(17.703 15.528)">
                <g id="Grupo_1075500" data-name="Grupo 1075500">
                  <path id="Trazado_612958" data-name="Trazado 612958" d="M16.647,52.321a4.853,4.853,0,0,0,4.606,3.753,3.048,3.048,0,0,0,3.133-3.753,4.884,4.884,0,0,0-4.606-3.753,3.054,3.054,0,0,0-3.133,3.753Z" transform="translate(-16.578 -48.568)" fill="#4d5d77"/>
                </g>
              </g>
            </g>
          </g>
          <g id="Grupo_1075505" data-name="Grupo 1075505" transform="translate(67.542 38.289)">
            <g id="Grupo_1075504" data-name="Grupo 1075504">
              <path id="Trazado_612959" data-name="Trazado 612959" d="M61.08,33.726,49.26,40.143l-1.1-5.407,10.38-4.03Z" transform="translate(-48.159 -30.707)" fill="#bdc8ff"/>
            </g>
          </g>
          <g id="Grupo_1075507" data-name="Grupo 1075507" transform="translate(61.632 39.151)">
            <g id="Grupo_1075506" data-name="Grupo 1075506" transform="translate(0 0)">
              <path id="Trazado_612960" data-name="Trazado 612960" d="M50.324,34.421l-4.235,5.293-1.674-6.289,3.315-2.172,2.618,3.287" transform="translate(-44.415 -31.253)" fill="#bdc8ff"/>
            </g>
          </g>
        </g>
      </g>
      <g id="Grupo_1075511" data-name="Grupo 1075511" transform="translate(2 5.589)">
        <g id="Grupo_1075510" data-name="Grupo 1075510">
          <path id="Trazado_612961" data-name="Trazado 612961" d="M2,8.37V33.829a2.789,2.789,0,0,0,2.781,2.781h27.77l5.79,3.92A1.32,1.32,0,0,0,40.4,39.436V36.609h3.1a2.789,2.789,0,0,0,2.781-2.781V8.37A2.789,2.789,0,0,0,43.5,5.589H4.781A2.789,2.789,0,0,0,2,8.37Z" transform="translate(-2 -5.589)" fill="#fff"/>
        </g>
      </g>
      <g id="Grupo_1075556" data-name="Grupo 1075556" transform="translate(8.009 11.039)">
        <g id="Grupo_1075533" data-name="Grupo 1075533">
          <g id="Grupo_1075513" data-name="Grupo 1075513">
            <g id="Grupo_1075512" data-name="Grupo 1075512">
              <path id="Trazado_612962" data-name="Trazado 612962" d="M36.331,10.559V27.617a1.519,1.519,0,0,1-1.517,1.516H7.325a1.519,1.519,0,0,1-1.517-1.516V10.559A1.519,1.519,0,0,1,7.325,9.042h27.49A1.519,1.519,0,0,1,36.331,10.559Z" transform="translate(-5.808 -9.042)" fill="#f8c51a"/>
            </g>
          </g>
          <g id="Grupo_1075521" data-name="Grupo 1075521" transform="translate(16.346 2.724)">
            <g id="Grupo_1075515" data-name="Grupo 1075515">
              <g id="Grupo_1075514" data-name="Grupo 1075514">
                <path id="Trazado_612963" data-name="Trazado 612963" d="M27.929,11.3V15.41a.53.53,0,0,1-.528.528H16.537a.376.376,0,0,1-.371-.372V11.109a.351.351,0,0,1,.371-.34H27.4a.529.529,0,0,1,.527.527Z" transform="translate(-16.165 -10.768)" fill="#fff"/>
              </g>
            </g>
            <g id="Grupo_1075520" data-name="Grupo 1075520" transform="translate(2.062 1.5)">
              <g id="Grupo_1075517" data-name="Grupo 1075517">
                <g id="Grupo_1075516" data-name="Grupo 1075516">
                  <path id="Trazado_612964" data-name="Trazado 612964" d="M24.273,12.067a.328.328,0,0,1-.322.322H17.82a.335.335,0,0,1-.348-.322.34.34,0,0,1,.348-.348h6.131A.335.335,0,0,1,24.273,12.067Z" transform="translate(-17.472 -11.719)" fill="#bdc8ff"/>
                </g>
              </g>
              <g id="Grupo_1075519" data-name="Grupo 1075519" transform="translate(0 1.5)">
                <g id="Grupo_1075518" data-name="Grupo 1075518">
                  <path id="Trazado_612965" data-name="Trazado 612965" d="M22.049,13.017a.328.328,0,0,1-.322.322H17.82a.335.335,0,0,1-.348-.322.34.34,0,0,1,.348-.348h3.906A.335.335,0,0,1,22.049,13.017Z" transform="translate(-17.472 -12.669)" fill="#bdc8ff"/>
                </g>
              </g>
            </g>
          </g>
          <g id="Grupo_1075530" data-name="Grupo 1075530" transform="translate(2.579 12.308)">
            <g id="Grupo_1075523" data-name="Grupo 1075523" transform="translate(20.869)">
              <g id="Grupo_1075522" data-name="Grupo 1075522">
                <path id="Trazado_612966" data-name="Trazado 612966" d="M25.171,17.228v.533a.4.4,0,0,1-.386.386H21.071a.405.405,0,0,1-.4-.386v-.533a.393.393,0,0,1,.4-.386h3.714A.388.388,0,0,1,25.171,17.228Z" transform="translate(-20.666 -16.842)" fill="#fff"/>
              </g>
            </g>
            <g id="Grupo_1075525" data-name="Grupo 1075525">
              <g id="Grupo_1075524" data-name="Grupo 1075524">
                <path id="Trazado_612967" data-name="Trazado 612967" d="M11.929,17.228v.533a.389.389,0,0,1-.386.386H7.829a.389.389,0,0,1-.386-.386v-.533a.377.377,0,0,1,.386-.386h3.714A.377.377,0,0,1,11.929,17.228Z" transform="translate(-7.442 -16.842)" fill="#fff"/>
              </g>
            </g>
            <g id="Grupo_1075527" data-name="Grupo 1075527" transform="translate(13.919)">
              <g id="Grupo_1075526" data-name="Grupo 1075526">
                <path id="Trazado_612968" data-name="Trazado 612968" d="M20.749,17.228v.533a.389.389,0,0,1-.386.386H16.648a.389.389,0,0,1-.386-.386v-.533a.377.377,0,0,1,.386-.386h3.714A.377.377,0,0,1,20.749,17.228Z" transform="translate(-16.262 -16.842)" fill="#fff"/>
              </g>
            </g>
            <g id="Grupo_1075529" data-name="Grupo 1075529" transform="translate(6.951)">
              <g id="Grupo_1075528" data-name="Grupo 1075528">
                <path id="Trazado_612969" data-name="Trazado 612969" d="M16.351,17.228v.533a.405.405,0,0,1-.4.386H12.233a.4.4,0,0,1-.386-.386v-.533a.388.388,0,0,1,.386-.386h3.714A.393.393,0,0,1,16.351,17.228Z" transform="translate(-11.847 -16.842)" fill="#fff"/>
              </g>
            </g>
          </g>
          <g id="Grupo_1075532" data-name="Grupo 1075532" transform="translate(2.569 15.323)">
            <g id="Grupo_1075531" data-name="Grupo 1075531">
              <path id="Trazado_612970" data-name="Trazado 612970" d="M25.7,19.464a.7.7,0,0,1-.712.712H8.148a.712.712,0,0,1,0-1.424H24.989A.7.7,0,0,1,25.7,19.464Z" transform="translate(-7.436 -18.752)" fill="#fff"/>
            </g>
          </g>
        </g>
        <g id="Grupo_1075555" data-name="Grupo 1075555" transform="translate(3.158 2.762)">
          <g id="Grupo_1075536" data-name="Grupo 1075536" transform="translate(4.64 1.52)">
            <g id="Grupo_1075535" data-name="Grupo 1075535">
              <g id="Grupo_1075534" data-name="Grupo 1075534">
                <path id="Trazado_612971" data-name="Trazado 612971" d="M10.749,11.756h1.018v2.056H10.749Z" transform="translate(-10.749 -11.756)" fill="#fff"/>
              </g>
            </g>
          </g>
          <g id="Grupo_1075539" data-name="Grupo 1075539" transform="translate(4.311 0.003)">
            <g id="Grupo_1075538" data-name="Grupo 1075538">
              <g id="Grupo_1075537" data-name="Grupo 1075537">
                <path id="Trazado_612972" data-name="Trazado 612972" d="M10.871,11.614v.523h1.018v-.523a.819.819,0,0,0-.817-.819h-.531a1.015,1.015,0,0,1,.33.819Z" transform="translate(-10.541 -10.795)" fill="#fff"/>
              </g>
            </g>
          </g>
          <g id="Grupo_1075542" data-name="Grupo 1075542" transform="translate(1.193 0.088)">
            <g id="Grupo_1075541" data-name="Grupo 1075541">
              <g id="Grupo_1075540" data-name="Grupo 1075540">
                <path id="Trazado_612973" data-name="Trazado 612973" d="M11.835,15.035l0-3.453a.782.782,0,0,0-.316-.712.232.232,0,0,0-.093-.02l-2.451,0a.345.345,0,0,0-.278.2,1.047,1.047,0,0,0-.132.535l0,3.453c0,.4.184.732.409.732l2.451,0a.346.346,0,0,0,.276-.2,1.041,1.041,0,0,0,.134-.535Z" transform="translate(-8.565 -10.848)" fill="#fff"/>
              </g>
            </g>
          </g>
          <g id="Grupo_1075545" data-name="Grupo 1075545" transform="translate(4.307 3.752)">
            <g id="Grupo_1075544" data-name="Grupo 1075544">
              <g id="Grupo_1075543" data-name="Grupo 1075543">
                <path id="Trazado_612974" data-name="Trazado 612974" d="M10.87,13.17v.523a1.217,1.217,0,0,1-.16.626.67.67,0,0,1-.172.192h.531a.819.819,0,0,0,.819-.817v-.523Z" transform="translate(-10.538 -13.17)" fill="#fff"/>
              </g>
            </g>
          </g>
          <g id="Grupo_1075548" data-name="Grupo 1075548" transform="translate(0.003)">
            <g id="Grupo_1075547" data-name="Grupo 1075547">
              <g id="Grupo_1075546" data-name="Grupo 1075546">
                <path id="Trazado_612975" data-name="Trazado 612975" d="M8.829,12.134v-.523a1.224,1.224,0,0,1,.158-.626.66.66,0,0,1,.172-.193H8.63a.818.818,0,0,0-.819.817v.524Z" transform="translate(-7.811 -10.793)" fill="#fff"/>
              </g>
            </g>
          </g>
          <g id="Grupo_1075551" data-name="Grupo 1075551" transform="translate(0 3.748)">
            <g id="Grupo_1075550" data-name="Grupo 1075550">
              <g id="Grupo_1075549" data-name="Grupo 1075549">
                <path id="Trazado_612976" data-name="Trazado 612976" d="M8.827,13.691v-.523H7.809v.523a.818.818,0,0,0,.817.819h.529a1.018,1.018,0,0,1-.329-.819Z" transform="translate(-7.809 -13.168)" fill="#fff"/>
              </g>
            </g>
          </g>
          <g id="Grupo_1075554" data-name="Grupo 1075554" transform="translate(0.002 1.517)">
            <g id="Grupo_1075553" data-name="Grupo 1075553">
              <g id="Grupo_1075552" data-name="Grupo 1075552">
                <path id="Trazado_612977" data-name="Trazado 612977" d="M7.81,11.754H8.828V13.81H7.81Z" transform="translate(-7.81 -11.754)" fill="#fff"/>
              </g>
            </g>
          </g>
        </g>
      </g>
    </g>
  </g>
</svg>
