<svg xmlns="http://www.w3.org/2000/svg" width="71" height="71" viewBox="0 0 71 71">
  <g id="Grupo_1075890" data-name="Grupo 1075890" transform="translate(-186.798 -5054.798)">
    <circle id="Elipse_5886" data-name="Elipse 5886" cx="35.5" cy="35.5" r="35.5" transform="translate(186.798 5054.798)" fill="#1b5fa4"/>
    <g id="despegar" transform="translate(189.723 5069.522)">
      <g id="Grupo_1075861" data-name="Grupo 1075861" transform="translate(0 4.67)">
        <g id="Grupo_1075860" data-name="Grupo 1075860">
          <path id="Trazado_613250" data-name="Trazado 613250" d="M64.324,134.073l-3.223-.215a4.5,4.5,0,0,1-2-.535l-13.185-2L18.3,139.037a6.19,6.19,0,0,1-5.8-1.351l-7.144-6.4a1.881,1.881,0,0,0-1.762-.411l-2.226.622a1.881,1.881,0,0,0-1,2.941l4.7,6.265a1.987,1.987,0,0,1-.007,2.394,1.987,1.987,0,0,0-.331,1.736l.371,1.33a1.987,1.987,0,0,0,1.44,1.4l11.74,2.88a10.549,10.549,0,0,0,5.351-.085l35.325-9.867a7.78,7.78,0,0,0,1.75-.729l4.342-2.467a1.724,1.724,0,0,0-.736-3.218Z" transform="translate(0.001 -130.806)" fill="#f9f3f1"/>
        </g>
      </g>
      <g id="Grupo_1075863" data-name="Grupo 1075863" transform="translate(4.797 7.878)">
        <g id="Grupo_1075862" data-name="Grupo 1075862">
          <path id="Trazado_613251" data-name="Trazado 613251" d="M98.319,157.029a1.724,1.724,0,0,0-1.545-1.256l-.886-.059a1.718,1.718,0,0,1-.633.624L90.914,158.8a7.78,7.78,0,0,1-1.75.729L53.838,169.4a10.548,10.548,0,0,1-5.351.085l-11.242-2.758.317,1.136a1.987,1.987,0,0,0,1.44,1.4l11.74,2.88a10.548,10.548,0,0,0,5.351-.085l35.325-9.867a7.78,7.78,0,0,0,1.75-.729l4.342-2.467A1.724,1.724,0,0,0,98.319,157.029Z" transform="translate(-37.245 -155.714)" fill="#ebe5e3"/>
        </g>
      </g>
      <g id="Grupo_1075865" data-name="Grupo 1075865" transform="translate(45.914 3.842)">
        <g id="Grupo_1075864" data-name="Grupo 1075864" transform="translate(0 0)">
          <path id="Trazado_613252" data-name="Trazado 613252" d="M369.537,127.627l-4.893-2.616a5.4,5.4,0,0,0-4-.439l-4.109,1.148.766,2.743a2.623,2.623,0,0,0,3.232,1.821l9.186-2.566C369.659,127.689,369.6,127.659,369.537,127.627Z" transform="translate(-356.535 -124.373)" fill="#26a6fe"/>
        </g>
      </g>
      <g id="Grupo_1075867" data-name="Grupo 1075867" transform="translate(27.139 14.52)">
        <g id="Grupo_1075866" data-name="Grupo 1075866">
          <path id="Trazado_613253" data-name="Trazado 613253" d="M226.806,213.807l-10.965,3.063a3.675,3.675,0,0,1-4.251-1.848l-.7-1.359a1.287,1.287,0,0,1,.8-1.832l16.069-4.488a1.287,1.287,0,0,1,1.631,1.154l.1,1.527A3.674,3.674,0,0,1,226.806,213.807Z" transform="translate(-210.74 -207.294)" fill="#fd544c"/>
        </g>
      </g>
      <g id="Grupo_1075869" data-name="Grupo 1075869" transform="translate(7.434 18.59)">
        <g id="Grupo_1075868" data-name="Grupo 1075868" transform="translate(0 0)">
          <path id="Trazado_613254" data-name="Trazado 613254" d="M60.443,239.99l3.81-1.064a.7.7,0,0,1,.77,1.067l-4.638,6.884a.818.818,0,0,1-.458.331l-1.158.323a.818.818,0,0,1-.988-1.067l2.192-6.039A.7.7,0,0,1,60.443,239.99Z" transform="translate(-57.73 -238.899)" fill="#fe6c55"/>
        </g>
      </g>
      <g id="Grupo_1075871" data-name="Grupo 1075871" transform="translate(40.236 8.826)">
        <g id="Grupo_1075870" data-name="Grupo 1075870" transform="translate(0 0)">
          <path id="Trazado_613255" data-name="Trazado 613255" d="M313.747,166.16a1,1,0,0,1-.958-.728l-.305-1.093a.995.995,0,0,1,1.917-.535l.305,1.093a1,1,0,0,1-.959,1.263Z" transform="translate(-312.447 -163.076)" fill="#60b7ff"/>
        </g>
      </g>
      <g id="Grupo_1075873" data-name="Grupo 1075873" transform="translate(35.825 10.058)">
        <g id="Grupo_1075872" data-name="Grupo 1075872">
          <path id="Trazado_613256" data-name="Trazado 613256" d="M279.49,175.728a1,1,0,0,1-.958-.728l-.305-1.093a.995.995,0,1,1,1.917-.535l.305,1.093a1,1,0,0,1-.959,1.263Z" transform="translate(-278.19 -172.645)" fill="#60b7ff"/>
        </g>
      </g>
      <g id="Grupo_1075875" data-name="Grupo 1075875" transform="translate(31.414 11.29)">
        <g id="Grupo_1075874" data-name="Grupo 1075874" transform="translate(0 0)">
          <path id="Trazado_613257" data-name="Trazado 613257" d="M245.234,185.3a1,1,0,0,1-.958-.727l-.305-1.093a1,1,0,0,1,1.917-.535l.305,1.093a1,1,0,0,1-.959,1.263Z" transform="translate(-243.934 -182.213)" fill="#60b7ff"/>
        </g>
      </g>
      <g id="Grupo_1075877" data-name="Grupo 1075877" transform="translate(27.002 12.523)">
        <g id="Grupo_1075876" data-name="Grupo 1075876">
          <path id="Trazado_613258" data-name="Trazado 613258" d="M210.977,194.866a1,1,0,0,1-.958-.727l-.305-1.093a.995.995,0,0,1,1.917-.535l.305,1.093a1,1,0,0,1-.959,1.263Z" transform="translate(-209.677 -191.783)" fill="#60b7ff"/>
        </g>
      </g>
      <g id="Grupo_1075879" data-name="Grupo 1075879" transform="translate(22.591 13.755)">
        <g id="Grupo_1075878" data-name="Grupo 1075878">
          <path id="Trazado_613259" data-name="Trazado 613259" d="M176.721,204.434a1,1,0,0,1-.958-.727l-.305-1.093a1,1,0,0,1,1.917-.535l.305,1.093a1,1,0,0,1-.959,1.263Z" transform="translate(-175.421 -201.351)" fill="#60b7ff"/>
        </g>
      </g>
      <g id="Grupo_1075881" data-name="Grupo 1075881" transform="translate(18.179 14.987)">
        <g id="Grupo_1075880" data-name="Grupo 1075880" transform="translate(0 0)">
          <path id="Trazado_613260" data-name="Trazado 613260" d="M142.465,214a1,1,0,0,1-.958-.728l-.305-1.093a.995.995,0,0,1,1.917-.535l.305,1.093a1,1,0,0,1-.959,1.263Z" transform="translate(-141.165 -210.919)" fill="#60b7ff"/>
        </g>
      </g>
      <g id="Grupo_1075883" data-name="Grupo 1075883" transform="translate(16.978 1.689)">
        <g id="Grupo_1075882" data-name="Grupo 1075882" transform="translate(0 0)">
          <path id="Trazado_613261" data-name="Trazado 613261" d="M132.836,112.887a1,1,0,0,1-.267-1.954l11.606-3.242a.995.995,0,1,1,.535,1.917L133.1,112.85A1,1,0,0,1,132.836,112.887Z" transform="translate(-131.841 -107.655)" fill="#cbe5e8"/>
        </g>
      </g>
      <g id="Grupo_1075885" data-name="Grupo 1075885" transform="translate(10.106 0)">
        <g id="Grupo_1075884" data-name="Grupo 1075884">
          <path id="Trazado_613262" data-name="Trazado 613262" d="M79.472,98.566a1,1,0,0,1-.267-1.954l7.284-2.035a.995.995,0,1,1,.535,1.917L79.74,98.529A1,1,0,0,1,79.472,98.566Z" transform="translate(-78.477 -94.541)" fill="#cbe5e8"/>
        </g>
      </g>
      <g id="Grupo_1075887" data-name="Grupo 1075887" transform="translate(10.267 28.023)">
        <g id="Grupo_1075886" data-name="Grupo 1075886" transform="translate(0 0)">
          <path id="Trazado_613263" data-name="Trazado 613263" d="M80.716,318.418a1,1,0,0,1-.267-1.954l15.317-4.278A.995.995,0,0,1,96.3,314.1l-15.317,4.278A1,1,0,0,1,80.716,318.418Z" transform="translate(-79.721 -312.149)" fill="#cbe5e8"/>
        </g>
      </g>
      <g id="Grupo_1075889" data-name="Grupo 1075889" transform="translate(3.466 35.044)">
        <g id="Grupo_1075888" data-name="Grupo 1075888">
          <path id="Trazado_613264" data-name="Trazado 613264" d="M27.909,373.211a1,1,0,0,1-.3-1.943l14.221-4.55a.995.995,0,1,1,.606,1.9l-14.221,4.55a.993.993,0,0,1-.3.048Z" transform="translate(-26.914 -366.671)" fill="#cbe5e8"/>
        </g>
      </g>
    </g>
  </g>
</svg>
