<svg xmlns="http://www.w3.org/2000/svg" width="169.081" height="156.992" viewBox="0 0 169.081 156.992">
  <g id="Grupo_1075904" data-name="Grupo 1075904" transform="translate(-709 -3417)">
    <g id="Grupo_1075406" data-name="Grupo 1075406" transform="translate(721.089 3417)">
      <g id="Grupo_161157" data-name="Grupo 161157" transform="translate(0 0)">
        <path id="Trazado_608968" data-name="Trazado 608968" d="M78.5,0A78.5,78.5,0,1,1,0,78.5,78.5,78.5,0,0,1,78.5,0Z" fill="#0c5e46"/>
      </g>
    </g>
    <rect id="Rectángulo_379179" data-name="Rectángulo 379179" width="14" height="4" transform="translate(709 3493.826)" fill="#0c5e46"/>
    <g id="Grupo_1075407" data-name="Grupo 1075407" transform="translate(730.226 3426.137)">
      <circle id="Elipse_1142" data-name="Elipse 1142" cx="69.5" cy="69.5" r="69.5" transform="translate(-0.226 -0.31)" fill="#e1efe3"/>
    </g>
    <g id="mesa" transform="translate(756.806 3450.548)">
      <path id="Trazado_613006" data-name="Trazado 613006" d="M0,0H19.784V17.919H0Z" transform="translate(3.831 17.822) rotate(-45)" fill="#a2e62e"/>
      <path id="Trazado_613007" data-name="Trazado 613007" d="M30.294,109.547a5.467,5.467,0,0,1-7.731,0l-6.877-6.877a8.193,8.193,0,0,1,0-11.587l1.938-1.938,12.671,12.671A5.467,5.467,0,0,1,30.294,109.547Z" transform="translate(-11.039 -74.074)" fill="#bbec6c"/>
      <path id="Trazado_613008" data-name="Trazado 613008" d="M31.477,107.777a5.468,5.468,0,0,1-8.915,1.768l-6.876-6.878a8.19,8.19,0,0,1,0-11.587l1.937-1.938.091.091a8.19,8.19,0,0,0,.927,10.481l6.876,6.878a5.471,5.471,0,0,0,5.961,1.186Z" transform="translate(-11.038 -74.072)" fill="#a2e62e"/>
      <path id="Trazado_613009" data-name="Trazado 613009" d="M0,0H19.784V17.919H0Z" transform="translate(17.817 82.732) rotate(-135)" fill="#5f99d7"/>
      <path id="Trazado_613010" data-name="Trazado 613010" d="M109.546,390.238a5.467,5.467,0,0,1,0,7.731l-6.877,6.877a8.193,8.193,0,0,1-11.587,0l-1.938-1.938,12.671-12.671A5.467,5.467,0,0,1,109.546,390.238Z" transform="translate(-74.073 -322.935)" fill="#7bacdf"/>
      <path id="Trazado_613011" data-name="Trazado 613011" d="M110.556,391.633a5.462,5.462,0,0,0-6.339,1.008L91.564,405.292c-.166-.139-.327-.289-.484-.446l-1.938-1.938,12.67-12.672a5.471,5.471,0,0,1,7.733,0A5.4,5.4,0,0,1,110.556,391.633Z" transform="translate(-74.071 -322.934)" fill="#5f99d7"/>
      <path id="Trazado_613012" data-name="Trazado 613012" d="M0,0H19.784V17.919H0Z" transform="translate(68.73 3.825) rotate(45)" fill="#dedbee"/>
      <path id="Trazado_613013" data-name="Trazado 613013" d="M294.306,30.295a5.467,5.467,0,0,1,0-7.731l6.877-6.877a8.193,8.193,0,0,1,11.587,0l1.938,1.938L302.037,30.295A5.467,5.467,0,0,1,294.306,30.295Z" transform="translate(-243.221 -11.04)" fill="#faf7f7"/>
      <path id="Trazado_613014" data-name="Trazado 613014" d="M296.072,31.471a5.468,5.468,0,0,1-1.768-8.915l6.878-6.876a8.19,8.19,0,0,1,11.587,0l1.938,1.937-.091.091a8.19,8.19,0,0,0-10.481.927l-6.878,6.876a5.471,5.471,0,0,0-1.186,5.961Z" transform="translate(-243.219 -11.034)" fill="#dedbee"/>
      <path id="Trazado_613015" data-name="Trazado 613015" d="M0,0H19.784V17.919H0Z" transform="translate(82.738 68.735) rotate(135)" fill="#fd4755"/>
      <path id="Trazado_613016" data-name="Trazado 613016" d="M390.237,294.306a5.467,5.467,0,0,1,7.731,0l6.877,6.877a8.193,8.193,0,0,1,0,11.587l-1.938,1.938-12.671-12.671A5.466,5.466,0,0,1,390.237,294.306Z" transform="translate(-322.934 -243.221)" fill="#fe646f"/>
      <path id="Trazado_613017" data-name="Trazado 613017" d="M391.632,296.189a5.462,5.462,0,0,0,1.008,6.339l12.651,12.653c-.139.166-.289.327-.446.484l-1.938,1.938-12.672-12.67a5.471,5.471,0,0,1,0-7.733A5.4,5.4,0,0,1,391.632,296.189Z" transform="translate(-322.933 -246.116)" fill="#fd4755"/>
      <path id="Trazado_613018" data-name="Trazado 613018" d="M50.787,14.232,14.231,50.788a4.542,4.542,0,0,0,0,6.423L50.787,93.767a4.542,4.542,0,0,0,6.423,0L93.766,57.211a4.542,4.542,0,0,0,0-6.423L57.21,14.232a4.542,4.542,0,0,0-6.423,0Z" transform="translate(-10.719 -10.721)" fill="#b98080"/>
      <path id="Trazado_613019" data-name="Trazado 613019" d="M22.085,57.205,57.926,93.047l-.714.714a4.54,4.54,0,0,1-6.423,0L14.233,57.205a4.541,4.541,0,0,1,0-6.421L50.789,14.228a4.54,4.54,0,0,1,6.423,0l.714.714L22.085,50.784A4.541,4.541,0,0,0,22.085,57.205Z" transform="translate(-10.722 -10.717)" fill="#ae6c6c"/>
      <path id="Trazado_613020" data-name="Trazado 613020" d="M0,0H14.92V19.923H0Z" transform="translate(43.837 36.472) rotate(45)" fill="#dedbee"/>
      <path id="Trazado_613021" data-name="Trazado 613021" d="M0,0H14.92V19.923H0Z" transform="translate(30.661 39.183) rotate(45)" fill="#faf7f7"/>
      <path id="Trazado_613022" data-name="Trazado 613022" d="M279.981,375.913a5.467,5.467,0,0,0,0,7.731l9.3,9.3a8.193,8.193,0,0,0,11.587,0l1.938-1.938-15.092-15.092A5.467,5.467,0,0,0,279.981,375.913Z" transform="translate(-231.318 -311.032)" fill="#fe646f"/>
      <path id="Trazado_613023" data-name="Trazado 613023" d="M281.372,377.81a5.463,5.463,0,0,0,1.01,6.338l9.3,9.3a8.19,8.19,0,0,0,11.1.448l.019.019-1.938,1.938a8.194,8.194,0,0,1-11.587,0l-9.3-9.3a5.466,5.466,0,0,1,0-7.731A5.394,5.394,0,0,1,281.372,377.81Z" transform="translate(-231.316 -313.939)" fill="#fd4755"/>
      <path id="Trazado_613024" data-name="Trazado 613024" d="M387.607,402.855a10.782,10.782,0,1,1,15.247-15.247c.163.163.321.331.47.5-1.433,2.25,0,9.352-2.931,12.284s-9.945,1.139-12.286,2.929Q387.851,403.1,387.607,402.855Z" transform="translate(-319.455 -319.456)" fill="#ffdfcf"/>
      <path id="Trazado_613025" data-name="Trazado 613025" d="M397.92,408.419c-3.354.963-8,.192-9.816,1.583-.171-.15-.338-.306-.5-.468a10.8,10.8,0,0,1,2.376-17.047,10.781,10.781,0,0,0,1.794,12.876c.164.164.329.321.5.468A10.713,10.713,0,0,0,397.92,408.419Z" transform="translate(-319.453 -326.134)" fill="#ffcebf"/>
      <path id="Trazado_613026" data-name="Trazado 613026" d="M406.089,421.313A15.956,15.956,0,0,1,421.306,406.1a10.78,10.78,0,0,1-15.217,15.213Z" transform="translate(-337.437 -337.446)" fill="#ffd15b"/>
      <path id="Trazado_613027" data-name="Trazado 613027" d="M422.63,459.248a10.79,10.79,0,0,1-16.545,2.844,15.937,15.937,0,0,1,1.928-6.918,10.717,10.717,0,0,0,1.742,2.278c.164.164.329.32.5.468A10.785,10.785,0,0,0,422.63,459.248Z" transform="translate(-337.433 -378.224)" fill="#ffc344"/>
      <path id="Trazado_613028" data-name="Trazado 613028" d="M375.912,111.968a5.467,5.467,0,0,0,7.731,0l9.3-9.3a8.193,8.193,0,0,0,0-11.587L391,89.145l-15.092,15.092A5.466,5.466,0,0,0,375.912,111.968Z" transform="translate(-311.031 -74.074)" fill="#faf7f7"/>
      <path id="Trazado_613029" data-name="Trazado 613029" d="M377.683,113.145a5.468,5.468,0,0,1-1.77-8.915l15.093-15.093,1.938,1.938a8.1,8.1,0,0,1,.926,1.1l-15,15A5.466,5.466,0,0,0,377.683,113.145Z" transform="translate(-311.032 -74.068)" fill="#dedbee"/>
      <path id="Trazado_613030" data-name="Trazado 613030" d="M402.854,31.619a10.782,10.782,0,0,1-15.247-15.247c.163-.163.331-.321.5-.47,2.25,1.433,9.352,0,12.284,2.931s1.139,9.945,2.929,12.286Q403.1,31.375,402.854,31.619Z" transform="translate(-319.455 -13.214)" fill="#d78878"/>
      <path id="Trazado_613031" data-name="Trazado 613031" d="M389.7,33.247A10.787,10.787,0,0,1,387.6,16.367c.164-.164.331-.322.5-.47,1.561.994,5.451.61,8.67,1.257a10.706,10.706,0,0,0-4.944,2.466c-.172.15-.34.308-.5.47A10.782,10.782,0,0,0,389.7,33.247Z" transform="translate(-319.453 -13.209)" fill="#ca6e59"/>
      <path id="Trazado_613032" data-name="Trazado 613032" d="M421.313,17.906a15.9,15.9,0,0,1-10.557-4.658A15.885,15.885,0,0,1,406.1,2.689a10.78,10.78,0,0,1,15.213,15.217Z" transform="translate(-337.446 -0.001)" fill="#7a6d79"/>
      <path id="Trazado_613033" data-name="Trazado 613033" d="M407.691,8.964a15.89,15.89,0,0,1-1.6-6.277A10.787,10.787,0,0,1,422.474,5.25a10.781,10.781,0,0,0-12.653,1.162c-.172.15-.34.308-.5.47a10.712,10.712,0,0,0-1.627,2.083Z" transform="translate(-337.442)" fill="#685e68"/>
      <path id="Trazado_613034" data-name="Trazado 613034" d="M32.715,279.981a5.467,5.467,0,0,0-7.731,0l-9.3,9.3a8.193,8.193,0,0,0,0,11.587l1.938,1.938,15.092-15.092A5.467,5.467,0,0,0,32.715,279.981Z" transform="translate(-11.039 -231.318)" fill="#7bacdf"/>
      <path id="Trazado_613035" data-name="Trazado 613035" d="M33.722,281.373a5.463,5.463,0,0,0-6.338,1.01l-9.3,9.3a8.19,8.19,0,0,0-.448,11.1l-.019.019-1.939-1.938a8.194,8.194,0,0,1,0-11.587l9.3-9.3a5.466,5.466,0,0,1,7.731,0,5.391,5.391,0,0,1,1.01,1.393Z" transform="translate(-11.035 -231.317)" fill="#5f99d7"/>
      <path id="Trazado_613036" data-name="Trazado 613036" d="M16.378,387.607a10.782,10.782,0,0,1,15.247,15.247c-.163.163-.331.321-.5.47-2.25-1.433-9.352,0-12.284-2.931s-1.139-9.945-2.929-12.286C16.059,387.936,16.215,387.77,16.378,387.607Z" transform="translate(-13.22 -319.455)" fill="#ffdfcf"/>
      <path id="Trazado_613037" data-name="Trazado 613037" d="M17.492,397.92c-.963-3.354-.192-8-1.583-9.816.15-.171.306-.338.468-.5a10.8,10.8,0,0,1,17.047,2.376,10.781,10.781,0,0,0-12.876,1.794c-.164.164-.321.329-.468.5A10.714,10.714,0,0,0,17.492,397.92Z" transform="translate(-13.219 -319.453)" fill="#ffcebf"/>
      <path id="Trazado_613038" data-name="Trazado 613038" d="M2.691,406.09a15.9,15.9,0,0,1,10.557,4.658A15.885,15.885,0,0,1,17.9,421.307,10.78,10.78,0,0,1,2.691,406.09Z" transform="translate(-0.001 -337.438)" fill="#7a6d79"/>
      <path id="Trazado_613039" data-name="Trazado 613039" d="M5.536,422.63a10.79,10.79,0,0,1-2.844-16.545,15.937,15.937,0,0,1,6.918,1.928,10.716,10.716,0,0,0-2.278,1.742c-.164.164-.321.329-.468.5A10.785,10.785,0,0,0,5.536,422.63Z" transform="translate(-0.002 -337.434)" fill="#685e68"/>
      <path id="Trazado_613040" data-name="Trazado 613040" d="M111.967,32.716a5.467,5.467,0,0,0,0-7.731l-9.3-9.3a8.193,8.193,0,0,0-11.587,0l-1.938,1.938,15.092,15.092a5.467,5.467,0,0,0,7.731,0Z" transform="translate(-74.073 -11.04)" fill="#bbec6c"/>
      <path id="Trazado_613041" data-name="Trazado 613041" d="M113.15,38.185a5.468,5.468,0,0,1-8.915,1.77L89.142,24.862l1.938-1.938a8.1,8.1,0,0,1,1.1-.926l15,15A5.466,5.466,0,0,0,113.15,38.185Z" transform="translate(-74.072 -18.278)" fill="#a2e62e"/>
      <path id="Trazado_613042" data-name="Trazado 613042" d="M31.618,16.378A10.782,10.782,0,1,1,16.371,31.626c-.163-.163-.321-.331-.47-.5,1.433-2.25,0-9.352,2.931-12.284S28.777,17.7,31.118,15.91C31.289,16.059,31.455,16.215,31.618,16.378Z" transform="translate(-13.212 -13.22)" fill="#ffdfcf"/>
      <path id="Trazado_613043" data-name="Trazado 613043" d="M33.248,61.7a10.787,10.787,0,0,1-16.879,2.092c-.164-.164-.322-.331-.47-.5.994-1.561.61-5.451,1.257-8.67a10.706,10.706,0,0,0,2.466,4.944c.15.172.308.34.47.5A10.781,10.781,0,0,0,33.248,61.7Z" transform="translate(-13.21 -45.389)" fill="#ffcebf"/>
      <path id="Trazado_613044" data-name="Trazado 613044" d="M17.905,2.692a15.9,15.9,0,0,1-4.658,10.557A15.885,15.885,0,0,1,2.689,17.905,10.78,10.78,0,0,1,17.905,2.692Z" transform="translate(0 -0.002)" fill="#b98080"/>
      <path id="Trazado_613045" data-name="Trazado 613045" d="M8.965,23.81a15.89,15.89,0,0,1-6.277,1.6A10.787,10.787,0,0,1,5.25,9.027,10.781,10.781,0,0,0,6.412,21.68c.15.172.308.34.47.5A10.724,10.724,0,0,0,8.965,23.81Z" transform="translate(0 -7.501)" fill="#ae6c6c"/>
    </g>
  </g>
</svg>
