<svg xmlns="http://www.w3.org/2000/svg" width="120" height="120" viewBox="0 0 120 120">
  <g id="Grupo_1075901" data-name="Grupo 1075901" transform="translate(-285 -923)">
    <g id="Grupo_1075580" data-name="Grupo 1075580" transform="translate(16 -35)">
      <path id="Trazado_608972" data-name="Trazado 608972" d="M60,0A60,60,0,1,1,0,60,60,60,0,0,1,60,0Z" transform="translate(269 958)" fill="#e1efe3"/>
    </g>
    <g id="Layer_2" data-name="Layer 2" transform="translate(311.001 945)">
      <g id="Layer_1" data-name="Layer 1" transform="translate(-0.001 0)">
        <path id="Trazado_613173" data-name="Trazado 613173" d="M122.757,68.647h43.232v58.868H122.757Z" transform="translate(-97.917 -54.756)" fill="#839590"/>
        <path id="Trazado_613174" data-name="Trazado 613174" d="M146.289,88.347V136.68l-10.535,10.535h-32.7V88.347Z" transform="translate(-82.203 -70.47)" fill="#edf3f3"/>
        <g id="Grupo_1075820" data-name="Grupo 1075820" transform="translate(34.821 44.389)">
          <path id="Trazado_613175" data-name="Trazado 613175" d="M264.642,337.738V327.2h10.535Z" transform="translate(-245.913 -305.382)" fill="#058789"/>
          <path id="Trazado_613176" data-name="Trazado 613176" d="M172.083,232.341h25v.909h-25Z" transform="translate(-172.083 -229.715)" fill="#058789"/>
          <path id="Trazado_613177" data-name="Trazado 613177" d="M172.083,219.366h25v.909h-25Z" transform="translate(-172.083 -219.366)" fill="#058789"/>
          <path id="Trazado_613178" data-name="Trazado 613178" d="M172.083,279.616h25v.909h-25Z" transform="translate(-172.083 -267.424)" fill="#058789"/>
          <path id="Trazado_613179" data-name="Trazado 613179" d="M172.083,266.64h25v.909h-25Z" transform="translate(-172.083 -257.074)" fill="#058789"/>
          <path id="Trazado_613180" data-name="Trazado 613180" d="M172.083,326.89h15.764v.909H172.083Z" transform="translate(-172.083 -305.132)" fill="#058789"/>
          <path id="Trazado_613181" data-name="Trazado 613181" d="M172.083,313.915h15.764v.909H172.083Z" transform="translate(-172.083 -294.783)" fill="#058789"/>
        </g>
        <path id="Trazado_613182" data-name="Trazado 613182" d="M28.923,256.579H7.908a5.815,5.815,0,0,1-5.241-8.335l10.954-22.788h9.59l10.954,22.788a5.815,5.815,0,0,1-5.241,8.335Z" transform="translate(-1.669 -179.834)" fill="#d6b87c"/>
        <path id="Trazado_613183" data-name="Trazado 613183" d="M62.856,175.24l-1.93,8.791h-9.59l-1.93-8.791a1.323,1.323,0,0,1,1.294-1.6H61.562a1.323,1.323,0,0,1,1.294,1.6Z" transform="translate(-39.384 -138.501)" fill="#d6b87c"/>
        <path id="Trazado_613184" data-name="Trazado 613184" d="M40.349,221.569H24.365a.786.786,0,1,0,0,1.573h3.576L25.285,225.8a.786.786,0,1,0,1.112,1.112l3.7-3.695a.78.78,0,0,0,.059-.073h10.2a.786.786,0,1,0,0-1.573Z" transform="translate(-18.808 -176.734)" fill="#503d2e"/>
        <circle id="Elipse_5884" data-name="Elipse 5884" cx="9.747" cy="9.747" r="9.747" transform="translate(6.804 54.555)" fill="#fdda92"/>
        <circle id="Elipse_5885" data-name="Elipse 5885" cx="7.658" cy="7.658" r="7.658" transform="translate(8.893 56.644)" fill="#edf3f3"/>
        <path id="Trazado_613185" data-name="Trazado 613185" d="M67.418,292.067a13.4,13.4,0,0,1,1.658.615,2.9,2.9,0,0,1,1.094.893,2.5,2.5,0,0,1,.45,1.551,2.664,2.664,0,0,1-.4,1.422,2.822,2.822,0,0,1-1.2,1.043,4.376,4.376,0,0,1-1.944.393h-.014v1.143h-.543v-1.172a4.2,4.2,0,0,1-2.423-.922,2.894,2.894,0,0,1-1.036-2.065H65.2a1.621,1.621,0,0,0,.4.908,1.584,1.584,0,0,0,.915.507v-2.8l-.286-.086a12.342,12.342,0,0,1-1.665-.593,2.848,2.848,0,0,1-1.086-.886,2.522,2.522,0,0,1-.45-1.565,2.464,2.464,0,0,1,.45-1.472,2.906,2.906,0,0,1,1.244-.972,4.649,4.649,0,0,1,1.794-.357v-1.2h.543v1.215a3.9,3.9,0,0,1,2.365.865,2.856,2.856,0,0,1,.994,1.951H68.247a1.5,1.5,0,0,0-.379-.808,1.446,1.446,0,0,0-.808-.436v2.716Zm-1.887-.865a2.97,2.97,0,0,0,.986.565v-2.573a1.573,1.573,0,0,0-.979.329,1.05,1.05,0,0,0-.35.843A1.094,1.094,0,0,0,65.531,291.2Zm2.558,4.874a1.191,1.191,0,0,0,.372-.908,1.079,1.079,0,0,0-.364-.85,3.044,3.044,0,0,0-1.036-.55v2.673A1.49,1.49,0,0,0,68.09,296.076Z" transform="translate(-50.273 -228.487)" fill="#503d2e"/>
        <path id="Trazado_613186" data-name="Trazado 613186" d="M83.858,2.014V14.567a2.017,2.017,0,0,1-2.014,2.014h-.669v3.542l-3.543-3.542h-16.2a2.017,2.017,0,0,1-2.014-2.014V2.014A2.017,2.017,0,0,1,61.434,0h20.41a2.017,2.017,0,0,1,2.014,2.014Z" transform="translate(-47.396 0)" fill="#03386e"/>
        <path id="Trazado_613187" data-name="Trazado 613187" d="M73.185,16.4H92.052v1.221H73.185Z" transform="translate(-58.376 -13.081)" fill="#edf3f3"/>
        <path id="Trazado_613188" data-name="Trazado 613188" d="M73.185,30.761H92.052v1.221H73.185Z" transform="translate(-58.376 -24.536)" fill="#edf3f3"/>
        <path id="Trazado_613189" data-name="Trazado 613189" d="M73.185,45.121H92.052v1.221H73.185Z" transform="translate(-58.376 -35.991)" fill="#edf3f3"/>
        <path id="Trazado_613190" data-name="Trazado 613190" d="M73.185,59.482H92.052V60.7H73.185Z" transform="translate(-58.376 -47.446)" fill="#edf3f3"/>
        <path id="Trazado_613191" data-name="Trazado 613191" d="M67.462,105.786l-6.438-6.438-4.182,4.182-9.052-9.053-5.377,5.377-9.689-9.689L29.45,93.438l-6.364-6.364,1.461-1.461,4.9,4.9,3.274-3.273,9.689,9.689,5.377-5.377,9.052,9.052,4.182-4.182,7.9,7.9Z" transform="translate(-18.414 -68.289)" fill="#0c5e46"/>
        <path id="Trazado_613192" data-name="Trazado 613192" d="M229.858,168.141a4.161,4.161,0,1,1,4.161-4.161A4.161,4.161,0,0,1,229.858,168.141Z" transform="translate(-180.027 -127.479)" fill="#edf3f3"/>
        <path id="Trazado_613193" data-name="Trazado 613193" d="M224.967,156.167a2.921,2.921,0,1,1-2.921,2.921,2.921,2.921,0,0,1,2.921-2.921m0-2.481a5.4,5.4,0,1,0,5.4,5.4A5.4,5.4,0,0,0,224.967,153.686Z" transform="translate(-175.135 -122.587)" fill="#0c5e46"/>
        <path id="Trazado_613194" data-name="Trazado 613194" d="M10.293,77.863A4.161,4.161,0,1,1,14.454,73.7,4.161,4.161,0,0,1,10.293,77.863Z" transform="translate(-4.891 -55.469)" fill="#edf3f3"/>
        <path id="Trazado_613195" data-name="Trazado 613195" d="M5.4,65.889A2.921,2.921,0,1,1,2.481,68.81,2.921,2.921,0,0,1,5.4,65.889m0-2.481a5.4,5.4,0,1,0,5.4,5.4,5.4,5.4,0,0,0-5.4-5.4Z" transform="translate(0.001 -50.577)" fill="#0c5e46"/>
        <path id="Trazado_613196" data-name="Trazado 613196" d="M105.005,137.426a3.37,3.37,0,1,1,3.369-3.369A3.37,3.37,0,0,1,105.005,137.426Z" transform="translate(-81.069 -104.243)" fill="#edf3f3"/>
        <path id="Trazado_613197" data-name="Trazado 613197" d="M100.114,127.037a2.129,2.129,0,1,1-2.129,2.129,2.129,2.129,0,0,1,2.129-2.129m0-2.481a4.61,4.61,0,1,0,4.61,4.61,4.61,4.61,0,0,0-4.61-4.61Z" transform="translate(-76.178 -99.352)" fill="#0c5e46"/>
        <path id="Trazado_613198" data-name="Trazado 613198" d="M218.31,50.776a12.059,12.059,0,0,1-17.054-17.054l4.264,4.264a6.026,6.026,0,1,0,8.518,8.527Z" transform="translate(-157.715 -26.898)" fill="#058789"/>
        <path id="Trazado_613199" data-name="Trazado 613199" d="M223.706,16.306v6.016a5.994,5.994,0,0,0-4.263,1.771l-4.264-4.264a11.989,11.989,0,0,1,8.527-3.524Z" transform="translate(-171.637 -13.007)" fill="#414042"/>
        <path id="Trazado_613200" data-name="Trazado 613200" d="M265.84,36.884l-4.273-4.264v-.009a5.957,5.957,0,0,0,1.771-4.254,6.034,6.034,0,0,0-6.027-6.034V16.306a11.936,11.936,0,0,1,8.527,3.524A12.056,12.056,0,0,1,265.84,36.884Z" transform="translate(-205.245 -13.006)" fill="#ff6d6d"/>
      </g>
    </g>
  </g>
</svg>
