<svg xmlns="http://www.w3.org/2000/svg" width="166.911" height="156.992" viewBox="0 0 166.911 156.992">
  <g id="Grupo_1075905" data-name="Grupo 1075905" transform="translate(-721.089 -3613.032)">
    <g id="Grupo_1075403" data-name="Grupo 1075403" transform="translate(721.089 3613.032)">
      <path id="Trazado_608379" data-name="Trazado 608379" d="M78.5,0A78.5,78.5,0,1,1,0,78.5,78.5,78.5,0,0,1,78.5,0Z" fill="#0c5e46"/>
    </g>
    <rect id="Rectángulo_379178" data-name="Rectángulo 379178" width="13" height="4" transform="translate(875 3689.826)" fill="#0c5e46"/>
    <g id="Grupo_1075404" data-name="Grupo 1075404" transform="translate(730.226 3620.508)">
      <ellipse id="Elipse_1142" data-name="Elipse 1142" cx="69.5" cy="69" rx="69.5" ry="69" transform="translate(-0.226 0.319)" fill="#e1efe3"/>
    </g>
    <g id="ganancias" transform="translate(714.578 3625.948)">
      <path id="Trazado_613046" data-name="Trazado 613046" d="M200.816,19.6a1.286,1.286,0,0,1-1.286-1.286V13.286a1.286,1.286,0,1,1,2.572,0v5.032A1.286,1.286,0,0,1,200.816,19.6Z" transform="translate(-129.856 0)" fill="#b0b5ca"/>
      <path id="Trazado_613047" data-name="Trazado 613047" d="M101.142,125.021a1.286,1.286,0,0,1-1.286-1.286v-2.283a1.286,1.286,0,0,1,2.572,0v2.283A1.286,1.286,0,0,1,101.142,125.021Z" transform="translate(-51.55 -84.977)" fill="#b0b5ca"/>
      <path id="Trazado_613048" data-name="Trazado 613048" d="M163.86,39.47h18.447v7.272H163.86Z" transform="translate(-101.833 -21.581)" fill="#87b7c6"/>
      <path id="Trazado_613049" data-name="Trazado 613049" d="M164,39h6.431v7.289H164Z" transform="translate(-101.943 -21.212)" fill="#6d9199"/>
      <path id="Trazado_613050" data-name="Trazado 613050" d="M88.64,134.82v8.526l7.383-3.636v-4.89Z" transform="translate(-42.738 -96.491)" fill="#9db3c1"/>
      <path id="Trazado_613051" data-name="Trazado 613051" d="M84.935,72V87.649L68,96.01v40.3l42.648-2.563.012,0V72Z" transform="translate(-26.523 -47.138)" fill="#7d8696"/>
      <path id="Trazado_613052" data-name="Trazado 613052" d="M74.431,96.01l16.935-8.361V72H84.935V87.649L68,96.01v40.3l6.431-.387Z" transform="translate(-26.523 -47.138)" fill="#59616b"/>
      <path id="Trazado_613053" data-name="Trazado 613053" d="M87.581,280.886h-2.75a1.9,1.9,0,0,1-1.878-1.746h-.058l-1.749,1.746H76.854l-1.734-1.941-.026.028a1.913,1.913,0,0,1-1.925,1.913H70.416A7.423,7.423,0,0,0,63,288.423v4.682l18.629,9.5,13.527-7.142v-7.04A7.583,7.583,0,0,0,87.581,280.886Z" transform="translate(-22.591 -209.719)" fill="#eb7288"/>
      <path id="Trazado_613054" data-name="Trazado 613054" d="M368.015,185.16a10.608,10.608,0,1,1-10.6,10.607,10.608,10.608,0,0,1,10.6-10.607Z" transform="translate(-253.891 -136.039)" fill="#edb740"/>
      <path id="Trazado_613055" data-name="Trazado 613055" d="M284.894,201.844l-3.222,3.222a9.084,9.084,0,0,0-6.442-2.669V197.84a13.622,13.622,0,0,1,9.664,4Z" transform="translate(-189.328 -146.001)" fill="#eadf53"/>
      <path id="Trazado_613056" data-name="Trazado 613056" d="M308.5,216.52a13.634,13.634,0,0,1,4,9.666h-4.555a9.086,9.086,0,0,0-2.669-6.444Z" transform="translate(-212.937 -160.677)" fill="#edb740"/>
      <path id="Trazado_613057" data-name="Trazado 613057" d="M312.5,261.61c0,.144,0,.285-.006.427a13.634,13.634,0,0,1-4,9.239l-3.222-3.222a9.093,9.093,0,0,0,2.669-6.444Z" transform="translate(-212.937 -196.101)" fill="#eadf53"/>
      <path id="Trazado_613058" data-name="Trazado 613058" d="M284.894,294.892a13.633,13.633,0,0,1-9.664,4v-4.555a9.084,9.084,0,0,0,6.442-2.669Z" transform="translate(-189.328 -219.717)" fill="#edb740"/>
      <path id="Trazado_613059" data-name="Trazado 613059" d="M215.484,216.52l3.22,3.222a9.086,9.086,0,0,0-2.669,6.444H211.48A13.627,13.627,0,0,1,215.484,216.52Z" transform="translate(-139.245 -160.677)" fill="#eadf53"/>
      <path id="Trazado_613060" data-name="Trazado 613060" d="M238.02,298.776a13.617,13.617,0,0,1-7.85-3.887l3.218-3.22a9.084,9.084,0,0,0,6.442,2.669v4.555a13.978,13.978,0,0,1-1.806-.117Z" transform="translate(-153.928 -219.717)" fill="#eadf53"/>
      <path id="Trazado_613061" data-name="Trazado 613061" d="M216.035,261.61a9.093,9.093,0,0,0,2.669,6.444l-3.218,3.22h0a13.618,13.618,0,0,1-4-9.664Z" transform="translate(-139.245 -196.101)" fill="#edb740"/>
      <path id="Trazado_613062" data-name="Trazado 613062" d="M238.012,197.958a13.99,13.99,0,0,1,1.809-.118V202.4a9.084,9.084,0,0,0-6.442,2.669l-3.22-3.222a13.636,13.636,0,0,1,7.852-3.887Z" transform="translate(-153.92 -146.001)" fill="#edb740"/>
      <path id="Trazado_613063" data-name="Trazado 613063" d="M131.932,288.09l-.993,2.9a.429.429,0,0,1-.416.326h-1.475a.486.486,0,0,1-.056,0,.433.433,0,0,1-.362-.322l-.99-2.9Z" transform="translate(-73.378 -216.904)" fill="#45adaa"/>
      <path id="Trazado_613064" data-name="Trazado 613064" d="M126.935,303.1h1.743l1.717,9.885-2.757,3.222-2.688-3.222,1.929-9.887v0a.479.479,0,0,0,.056,0Z" transform="translate(-71.264 -228.696)" fill="#53d8d8"/>
      <path id="Trazado_613065" data-name="Trazado 613065" d="M120.493,197.9v4.311a6.437,6.437,0,0,1-12.873,0V197.9a6.437,6.437,0,1,1,12.873,0Z" transform="translate(-57.649 -140.989)" fill="#ffd8b7"/>
      <path id="Trazado_613066" data-name="Trazado 613066" d="M247.966,221.3a9.216,9.216,0,1,1-6.517-2.7,9.216,9.216,0,0,1,6.517,2.7Z" transform="translate(-155.547 -162.311)" fill="#d8a43d"/>
      <path id="Trazado_613067" data-name="Trazado 613067" d="M70.446,284.555a7.436,7.436,0,0,1,6.4-3.669h.006l-1.734-1.941-.026.028a1.913,1.913,0,0,1-1.925,1.913H70.416A7.423,7.423,0,0,0,63,288.423v4.682l6.431,3.28v-7.962a7.49,7.49,0,0,1,1.018-3.868Z" transform="translate(-22.591 -209.719)" fill="#b55d70"/>
      <path id="Trazado_613068" data-name="Trazado 613068" d="M107.326,344.9l-2.778-2.521A18.266,18.266,0,0,0,85.3,340.458l-1.151.566-.045.021a13.03,13.03,0,0,1-5.728,1.329H67.217a8.347,8.347,0,0,0-8.193,7.119l-15.831-8.684a6.593,6.593,0,0,0-2.877-.815,6.687,6.687,0,0,0-6.075,3.312l29.011,20.307a19.961,19.961,0,0,0,12.633,1.82l16.77-3.149a6.133,6.133,0,0,1,4.562.617l9.083,5.855,6.341-21.208A11.031,11.031,0,0,1,107.326,344.9Z" transform="translate(0 -256.562)" fill="#ebbfa5"/>
      <path id="Trazado_613069" data-name="Trazado 613069" d="M167.091,322.436H162.96a1.286,1.286,0,1,1,0-2.572h4.131a1.286,1.286,0,1,1,0,2.572Z" transform="translate(-100.116 -241.867)" fill="#914c5e"/>
      <g id="_Group_" data-name=" Group " transform="translate(57.634 80.708)">
        <g id="_Path_" data-name=" Path ">
          <path id="Trazado_613070" data-name="Trazado 613070" d="M144.653,347.354a1.286,1.286,0,0,1-1.286-1.286,9.676,9.676,0,0,1,9.582-9.745h11.158a11.833,11.833,0,0,0,5.206-1.216l1.151-.567a19.478,19.478,0,0,1,20.6,2.05c.028.021.055.044.081.068l2.778,2.522a9.762,9.762,0,0,0,4.688,2.343,1.286,1.286,0,1,1-.476,2.528,12.369,12.369,0,0,1-5.941-2.966l-2.738-2.485a16.923,16.923,0,0,0-17.854-1.752l-1.151.567a14.422,14.422,0,0,1-6.344,1.482H152.949a7.066,7.066,0,0,0-6.885,5.82l8.047-.371a47.536,47.536,0,0,1,8.812.415,1.286,1.286,0,0,1-.359,2.547,45.035,45.035,0,0,0-8.334-.393l-9.518.439h-.059Z" transform="translate(-143.367 -332.506)" fill="#d6a78c"/>
        </g>
      </g>
      <path id="Trazado_613071" data-name="Trazado 613071" d="M263.888,239.792a.485.485,0,1,1,0-.968.534.534,0,0,1,.425.2,1.286,1.286,0,1,0,2.028-1.582,3.083,3.083,0,0,0-1.076-.875,1.286,1.286,0,0,0-2.537-.093,3.05,3.05,0,0,0,1.159,5.888.485.485,0,1,1,0,.968.532.532,0,0,1-.425-.2,1.286,1.286,0,1,0-2.028,1.582,3.076,3.076,0,0,0,1.188.923,1.285,1.285,0,0,0,2.53,0,3.049,3.049,0,0,0-1.265-5.843Z" transform="translate(-177.986 -175.544)" fill="#6994fe"/>
      <path id="Trazado_613072" data-name="Trazado 613072" d="M397.845,213.448a3.374,3.374,0,0,0-3.392-3.347.774.774,0,1,1-.021-1.547l.047,0h.01a.827.827,0,0,1,.626.313,1.286,1.286,0,0,0,2.028-1.582,3.374,3.374,0,0,0-1.38-1.044,1.285,1.285,0,0,0-2.566-.021,3.339,3.339,0,0,0,1.257,6.453.776.776,0,1,1,0,1.549.83.83,0,0,1-.661-.316,1.286,1.286,0,1,0-2.028,1.582,3.373,3.373,0,0,0,1.447,1.072,1.285,1.285,0,0,0,2.539-.021A3.352,3.352,0,0,0,397.845,213.448Z" transform="translate(-280.328 -151.629)" fill="#6994fe"/>
      <g id="Grupo_1075578" data-name="Grupo 1075578" transform="translate(96.399 25.36)">
        <path id="Trazado_613073" data-name="Trazado 613073" d="M325.492,96.159a1.286,1.286,0,0,1-1.286-1.279l-.005-1.021a1.286,1.286,0,0,1,1.279-1.294h.007a1.286,1.286,0,0,1,1.286,1.279l.006,1.022A1.286,1.286,0,0,1,325.5,96.16Z" transform="translate(-324.2 -88.654)" fill="#b0b5ca"/>
        <path id="Trazado_613074" data-name="Trazado 613074" d="M325.552,117a1.286,1.286,0,0,1-1.286-1.276l-.006-.772a1.286,1.286,0,0,1,1.276-1.3h.011a1.286,1.286,0,0,1,1.286,1.276l.006.772a1.286,1.286,0,0,1-1.276,1.3Z" transform="translate(-324.247 -105.223)" fill="#b0b5ca"/>
        <path id="Trazado_613075" data-name="Trazado 613075" d="M325.732,145.354a1.286,1.286,0,0,1-1.286-1.281l-.039-9.918a1.286,1.286,0,0,1,1.281-1.291h.005a1.286,1.286,0,0,1,1.286,1.281l.039,9.918a1.286,1.286,0,0,1-1.281,1.291Z" transform="translate(-324.363 -120.314)" fill="#b0b5ca"/>
        <path id="Trazado_613076" data-name="Trazado 613076" d="M423.794,78.8a1.286,1.286,0,0,1-1.286-1.286V75.873a1.286,1.286,0,1,1,2.572,0v1.644A1.286,1.286,0,0,1,423.794,78.8Z" transform="translate(-401.434 -74.53)" fill="#b0b5ca"/>
        <path id="Trazado_613077" data-name="Trazado 613077" d="M423.794,110.943a1.286,1.286,0,0,1-1.286-1.286v-11.7a1.286,1.286,0,1,1,2.572,0v11.7A1.286,1.286,0,0,1,423.794,110.943Z" transform="translate(-401.434 -91.878)" fill="#b0b5ca"/>
        <path id="Trazado_613078" data-name="Trazado 613078" d="M374.737,103.148a1.286,1.286,0,0,1-1.286-1.286V95.18a1.286,1.286,0,1,1,2.572,0v6.682A1.286,1.286,0,0,1,374.737,103.148Z" transform="translate(-362.893 -89.699)" fill="#b0b5ca"/>
        <path id="Trazado_613079" data-name="Trazado 613079" d="M374.737,147.094a1.286,1.286,0,0,1-1.286-1.286v-1.838a1.286,1.286,0,0,1,2.572,0v1.838A1.286,1.286,0,0,1,374.737,147.094Z" transform="translate(-362.893 -128.029)" fill="#b0b5ca"/>
        <path id="Trazado_613080" data-name="Trazado 613080" d="M374.737,77.806a1.286,1.286,0,0,1-1.286-1.286v-.911a1.286,1.286,0,0,1,2.572,0v.911A1.286,1.286,0,0,1,374.737,77.806Z" transform="translate(-362.893 -74.323)" fill="#b0b5ca"/>
        <path id="Trazado_613081" data-name="Trazado 613081" d="M472.663,96.16a1.286,1.286,0,0,1-1.286-1.279l-.006-1.021a1.286,1.286,0,0,1,1.279-1.294h.007a1.286,1.286,0,0,1,1.286,1.279l.006,1.022a1.286,1.286,0,0,1-1.279,1.294Z" transform="translate(-439.821 -88.655)" fill="#b0b5ca"/>
        <path id="Trazado_613082" data-name="Trazado 613082" d="M472.723,117a1.286,1.286,0,0,1-1.286-1.276l-.006-.772a1.286,1.286,0,0,1,1.276-1.3h.011A1.286,1.286,0,0,1,474,114.931l.006.772a1.286,1.286,0,0,1-1.276,1.3Z" transform="translate(-439.869 -105.223)" fill="#b0b5ca"/>
        <path id="Trazado_613083" data-name="Trazado 613083" d="M472.9,145.354a1.286,1.286,0,0,1-1.286-1.281l-.039-9.918a1.286,1.286,0,0,1,1.281-1.291h.005a1.286,1.286,0,0,1,1.286,1.281l.039,9.918a1.286,1.286,0,0,1-1.281,1.291Z" transform="translate(-439.984 -120.314)" fill="#b0b5ca"/>
      </g>
      <path id="Trazado_613084" data-name="Trazado 613084" d="M184.078,139.712H170.5a1.286,1.286,0,0,1,0-2.572h13.581a1.286,1.286,0,0,1,0,2.572Z" transform="translate(-106.037 -98.313)" fill="#464d54"/>
      <path id="Trazado_613085" data-name="Trazado 613085" d="M184.078,173.025H170.5a1.286,1.286,0,0,1,0-2.572h13.581a1.286,1.286,0,0,1,0,2.572Z" transform="translate(-106.037 -124.485)" fill="#464d54"/>
      <path id="Trazado_613086" data-name="Trazado 613086" d="M185.74,206.337h-6.074a1.286,1.286,0,1,1,0-2.572h6.074a1.286,1.286,0,0,1,0,2.572Z" transform="translate(-113.24 -150.656)" fill="#464d54"/>
      <path id="Trazado_613087" data-name="Trazado 613087" d="M182.812,238.087h-.037l-3.147-.09a1.287,1.287,0,0,1,.073-2.572l3.147.09a1.286,1.286,0,1,1-.036,2.572Z" transform="translate(-113.238 -175.529)" fill="#464d54"/>
      <path id="Trazado_613088" data-name="Trazado 613088" d="M179.53,268.261h-.023L176.2,268.2a1.286,1.286,0,1,1,.021-2.572h.023l3.309.058a1.286,1.286,0,1,1-.021,2.572Z" transform="translate(-110.524 -199.259)" fill="#464d54"/>
      <path id="Trazado_613089" data-name="Trazado 613089" d="M184.078,106.4H170.5a1.286,1.286,0,0,1,0-2.572h13.581a1.286,1.286,0,0,1,0,2.572Z" transform="translate(-106.037 -72.142)" fill="#464d54"/>
      <path id="Trazado_613090" data-name="Trazado 613090" d="M83.2,203.024H81a1.286,1.286,0,1,1,0-2.572h2.2a1.286,1.286,0,1,1,0,2.572Z" transform="translate(-35.724 -148.053)" fill="#464d54"/>
      <path id="Trazado_613091" data-name="Trazado 613091" d="M82.573,225.372H81a1.286,1.286,0,1,1,0-2.572h1.575a1.286,1.286,0,0,1,0,2.572Z" transform="translate(-35.724 -165.61)" fill="#464d54"/>
      <path id="Trazado_613092" data-name="Trazado 613092" d="M83.2,270.06H81a1.286,1.286,0,0,1,0-2.572h2.2a1.286,1.286,0,1,1,0,2.572Z" transform="translate(-35.724 -200.718)" fill="#464d54"/>
      <path id="Trazado_613093" data-name="Trazado 613093" d="M82.78,247.715H81a1.286,1.286,0,1,1,0-2.572H82.78a1.286,1.286,0,1,1,0,2.572Z" transform="translate(-35.724 -183.164)" fill="#464d54"/>
      <path id="Trazado_613094" data-name="Trazado 613094" d="M228.765,333.99h-3.853a1.286,1.286,0,1,1,0-2.572h3.853a1.286,1.286,0,1,1,0,2.572Z" transform="translate(-148.787 -250.944)" fill="#464d54"/>
      <path id="Trazado_613097" data-name="Trazado 613097" d="M377.753,350.39l-8.268,27.654-.244,3.561h17.471l4.478-31.215Z" transform="translate(-263.185 -265.849)" fill="#6994fe"/>
    </g>
  </g>
</svg>
